<?xml version="1.0" encoding="utf-8"?>
<!-- Generator: Adobe Illustrator 19.2.0, SVG Export Plug-In . SVG Version: 6.00 Build 0)  -->
<svg version="1.1" xmlns="http://www.w3.org/2000/svg" xmlns:xlink="http://www.w3.org/1999/xlink" x="0px" y="0px"
	 viewBox="0 0 1500 1500" style="enable-background:new 0 0 1500 1500;" xml:space="preserve">
<style type="text/css">
	.st0{display:none;}
	.st1{display:inline;}
	.st2{fill:#4F4F4F;}
	.st3{fill:#656666;}
	.st4{fill:#2C2A2A;}
	.st5{display:none;fill:#656666;}
	.st6{fill:none;stroke:#2C2A2A;stroke-width:8;stroke-miterlimit:10;}
	.st7{fill:none;}
	.st8{fill:#FFFFFF;}
	.st9{fill:#E2E2E2;}
	.st10{display:none;fill:#FFFFFF;}
	.st11{fill:#818282;}
	.st12{fill:#B2B1B1;}
</style>
<g id="Layer_2" class="st0">
	<rect x="-82.4" y="-59.9" class="st1" width="1657.4" height="1606.4"/>
</g>
<g id="Layer_1">
	<path id="capsule_body" class="st2" d="M1128,1374.1c66.2-161.6,204.9-623.6,284.8-895.5c-104.8-34.7-183.2-89.4-241.3-148.3
		c-59.2-58.4-114.1-137-149.1-242.1c-272.3,79.5-734.9,217.6-896.7,283.6c0,0-174.6,67.8-86.1,235.1c0,0,120.5,251.4,367.7,487.5
		c235.2,246.2,485.9,366,485.9,366C1060,1548.5,1128,1374.1,1128,1374.1z"/>
	<path id="bottom_plate" class="st3" d="M1118.9,1392.9C295.6,1092.2,148.8,531.3,123.4,372.9c-20.6,8.9-166,78.4-83.7,234.1
		c0,0,120.5,251.4,367.7,487.5c235.2,246.2,485.9,366,485.9,366C1025.2,1530.1,1095.4,1435.4,1118.9,1392.9z"/>
	<path id="cap" class="st4" d="M1414.9,471.9c0.2-0.8,0.4-1.5,0.7-2.2c0.6-2.1,1.2-4.2,1.8-6.2c0.3-0.9,0.5-1.9,0.8-2.8
		c0.6-1.9,1.1-3.8,1.7-5.6c0.4-1.2,0.7-2.4,1.1-3.6c0.6-2.1,1.2-4.2,1.8-6.3c0.3-0.9,0.5-1.8,0.8-2.7c0.5-1.6,1-3.3,1.4-4.9
		c0.3-0.9,0.5-1.7,0.8-2.6c0.6-2.1,1.2-4.2,1.9-6.3c0.3-1.1,0.6-2.2,1-3.3c0.3-1.1,0.6-2.2,1-3.3c0.6-2,1.2-4.1,1.8-6.1
		c0.3-0.9,0.5-1.8,0.8-2.7c0.4-1.4,0.8-2.8,1.2-4.2c0.1-0.4,0.2-0.8,0.3-1.1c0.7-2.4,1.4-4.9,2.1-7.2c0.3-1,0.6-2,0.9-3
		c0.3-1.1,0.6-2.1,0.9-3.2c0.5-1.7,1-3.5,1.5-5.2c0.3-1.1,0.6-2.2,0.9-3.3c0.3-1,0.6-2,0.9-3c0.4-1.4,0.8-2.8,1.2-4.2
		c0.5-1.6,0.9-3.1,1.4-4.7c0.1-0.4,0.3-0.9,0.4-1.3c0.5-1.8,1-3.6,1.6-5.3c0.3-1,0.6-2.1,0.9-3.1c0.2-0.7,0.4-1.5,0.6-2.2
		c0.4-1.5,0.9-3,1.3-4.5c0.4-1.3,0.7-2.6,1.1-3.8c0.1-0.5,0.3-1,0.4-1.5c0.3-1.1,0.6-2.2,1-3.3c0.4-1.3,0.8-2.7,1.2-4
		c0.3-1,0.6-1.9,0.8-2.9c0.2-0.8,0.5-1.6,0.7-2.4c0.4-1.3,0.8-2.6,1.1-3.9c0.3-1,0.6-1.9,0.8-2.9c0.1-0.4,0.2-0.7,0.3-1.1
		c0.5-1.8,1-3.5,1.5-5.3c0.2-0.5,0.3-1.1,0.5-1.6c0.2-0.7,0.4-1.3,0.6-1.9c0.3-0.9,0.5-1.7,0.7-2.6c0.4-1.3,0.7-2.6,1.1-3.8
		c0.1-0.4,0.2-0.9,0.4-1.3c0.2-0.6,0.4-1.2,0.5-1.8c0.4-1.3,0.7-2.5,1.1-3.7c0.2-0.6,0.3-1.2,0.5-1.8c0.7-2.3,1.3-4.4,1.9-6.5
		c0.1-0.4,0.2-0.8,0.3-1.2c0.3-1,0.6-2.1,0.9-3.1c0.2-0.6,0.4-1.3,0.5-1.9c0.1-0.3,0.2-0.6,0.3-0.9c0.2-0.6,0.4-1.3,0.5-1.9
		c0.3-0.9,0.5-1.8,0.8-2.7c0-0.1,0.1-0.3,0.1-0.4c0.2-0.7,0.4-1.4,0.6-2.1c0.1-0.3,0.2-0.5,0.2-0.8c0.3-0.9,0.5-1.8,0.7-2.6
		c0.1-0.2,0.1-0.4,0.2-0.6c0.1-0.3,0.1-0.5,0.2-0.8c0.2-0.7,0.4-1.3,0.6-2c0.1-0.5,0.3-0.9,0.4-1.3c0.5-1.7,0.9-3.1,1.2-4.2
		c0.4-1.3,0.6-2.2,0.8-2.8c0.1-0.3,0.2-0.6,0.2-0.7c0-0.1,0-0.1,0-0.1c26-78.4,7.1-122.5,7.1-122.5c-15.5-32.7-34.8-57.6-52.1-75.5
		c-18-17.3-43-36.7-75.8-52.3c0,0-44.2-19-122.7,6.9c0,0-0.1,0-0.1,0c-0.1,0-0.4,0.1-0.7,0.2c-0.6,0.2-1.5,0.4-2.8,0.8
		c-1.1,0.3-2.6,0.7-4.2,1.2c-0.4,0.1-0.9,0.2-1.3,0.4c-0.6,0.2-1.3,0.4-2,0.6c-0.3,0.1-0.5,0.1-0.8,0.2c-0.2,0.1-0.4,0.1-0.6,0.2
		c-0.8,0.2-1.7,0.5-2.6,0.7c-0.3,0.1-0.5,0.2-0.8,0.2c-0.7,0.2-1.3,0.4-2.1,0.6c-0.1,0-0.3,0.1-0.4,0.1c-0.9,0.3-1.8,0.5-2.7,0.8
		c-0.6,0.2-1.2,0.4-1.9,0.5c-0.3,0.1-0.6,0.2-0.9,0.3c-0.6,0.2-1.2,0.4-1.9,0.5c-1,0.3-2,0.6-3.1,0.9c-0.4,0.1-0.8,0.2-1.2,0.3
		c-2.1,0.6-4.3,1.2-6.5,1.9c-0.6,0.2-1.2,0.3-1.8,0.5c-1.2,0.3-2.5,0.7-3.7,1.1c-0.6,0.2-1.2,0.4-1.8,0.5c-0.4,0.1-0.9,0.2-1.3,0.4
		c-1.2,0.4-2.5,0.7-3.8,1.1c-0.9,0.2-1.7,0.5-2.6,0.7c-0.6,0.2-1.3,0.4-1.9,0.6c-0.5,0.2-1.1,0.3-1.6,0.5c-1.7,0.5-3.5,1-5.3,1.5
		c-0.4,0.1-0.7,0.2-1.1,0.3c-0.9,0.3-1.9,0.5-2.9,0.8c-1.3,0.4-2.6,0.7-3.9,1.1c-0.8,0.2-1.6,0.5-2.4,0.7c-1,0.3-1.9,0.6-2.9,0.8
		c-1.3,0.4-2.6,0.8-4,1.2c-1.1,0.3-2.2,0.6-3.3,1c-0.5,0.1-1,0.3-1.5,0.4c-1.3,0.4-2.5,0.7-3.8,1.1c-1.5,0.4-3,0.9-4.5,1.3
		c-0.7,0.2-1.5,0.4-2.2,0.6c-1,0.3-2.1,0.6-3.1,0.9c-1.8,0.5-3.5,1-5.4,1.5c-0.4,0.1-0.9,0.3-1.3,0.4c-1.5,0.4-3.1,0.9-4.7,1.3
		c-1.4,0.4-2.8,0.8-4.2,1.2c-1,0.3-2,0.6-3,0.9c-1.1,0.3-2.2,0.6-3.3,0.9c-1.7,0.5-3.4,1-5.2,1.5c-1,0.3-2.1,0.6-3.2,0.9
		c-1,0.3-2,0.6-3,0.9c-2.4,0.7-4.8,1.4-7.2,2.1c-0.4,0.1-0.8,0.2-1.1,0.3c-1.4,0.4-2.8,0.8-4.2,1.2c-0.9,0.3-1.8,0.5-2.7,0.8
		c-2,0.6-4,1.2-6.1,1.8c-1.1,0.3-2.2,0.6-3.3,1c-1.1,0.3-2.2,0.6-3.3,1c-2.1,0.6-4.2,1.2-6.3,1.8c-0.9,0.2-1.7,0.5-2.6,0.7
		c-1.6,0.5-3.3,1-4.9,1.4c-0.9,0.3-1.8,0.5-2.7,0.8c-2.1,0.6-4.2,1.2-6.3,1.8c-1.2,0.3-2.4,0.7-3.6,1c-1.9,0.5-3.8,1.1-5.6,1.6
		c-0.9,0.3-1.9,0.5-2.8,0.8c-2.1,0.6-4.1,1.2-6.2,1.8c-0.7,0.2-1.5,0.4-2.2,0.7c-2.3,0.7-4.5,1.3-6.8,2l0,0
		c35,105.1,89.9,183.7,149.1,242.1c58.2,58.9,136.5,113.6,241.3,148.3l0,0C1413.5,476.4,1414.2,474.1,1414.9,471.9z"/>
	<path class="st3" d="M987.9,1313.9c0,0-6.7-17.1-5.7-35.5C982.2,1278.5,994.9,1297.1,987.9,1313.9z"/>
	<path class="st3" d="M979.1,1328.4c0,0-7.7-11.2-4-27.3C975.1,1301.1,985.4,1311.9,979.1,1328.4z"/>
	<path class="st3" d="M1321.5,456.7c0,0-3.9,22.8,2.6,45.5C1324.1,502.1,1332.4,472,1321.5,456.7z"/>
	<path class="st3" d="M1308.8,478.7c0,0,10.4,12,4.5,26.1C1313.3,504.8,1305.6,496.3,1308.8,478.7z"/>
	<path class="st3" d="M1014.6,127.5c0,0,9.5-12.3,1.1-28.2C1015.7,99.3,1008.5,112.6,1014.6,127.5z"/>
	<path class="st3" d="M1001.6,126.9c0,0,5-8.4-1-16.9C1000.6,110,995.5,120.8,1001.6,126.9z"/>
	<path class="st3" d="M541,337.9c0,0,8.6-10.3-3-26.9C538,311,533.8,328.8,541,337.9z"/>
	<path class="st3" d="M528.8,341.5c0,0,5.9-9.5-4-17.3C524.9,324.2,521.6,337.7,528.8,341.5z"/>
	<path class="st3" d="M1308.9,60.7c0,0,3.6-10.8,15.7-7.7C1324.5,53,1318.1,60.6,1308.9,60.7z"/>
	<path class="st3" d="M1324.1,101.7c0,0,44.4,69.5,80.2,93.4c0,0,2.5,5.8-6.8,0.5C1397.5,195.6,1348.2,156.3,1324.1,101.7z"/>
	<path class="st3" d="M1444.3,212c0,0,10.2-7.2,9.6-17.9C1453.9,194.1,1464,210.5,1444.3,212z"/>
	<path class="st3" d="M1466.9,200.9c0,0,0.7,11.9-4.3,13.6C1462.6,214.5,1476.2,211.5,1466.9,200.9z"/>
	<path class="st3" d="M1328.3,44.4c0,0-16.4-4.5-26.4,5.4C1301.9,49.8,1306.4,27.1,1328.3,44.4z"/>
	<path class="st3" d="M1324,15.4c-20.9-2-52.8-0.8-94.3,12.9c0,0-0.1,0-0.1,0c-0.1,0-0.4,0.1-0.7,0.2c-0.6,0.2-1.5,0.4-2.8,0.8
		c-1.1,0.3-2.6,0.7-4.2,1.2c-0.4,0.1-0.9,0.2-1.3,0.4c-0.6,0.2-1.3,0.4-2,0.6c-0.3,0.1-0.5,0.1-0.8,0.2c-0.2,0.1-0.4,0.1-0.6,0.2
		c-0.8,0.2-1.7,0.5-2.6,0.7c-0.3,0.1-0.5,0.2-0.8,0.2c-0.7,0.2-1.3,0.4-2.1,0.6c-0.1,0-0.3,0.1-0.4,0.1c-0.9,0.3-1.8,0.5-2.7,0.8
		c-0.6,0.2-1.2,0.4-1.9,0.5c-0.3,0.1-0.6,0.2-0.9,0.3c-0.6,0.2-1.2,0.4-1.9,0.5c-1,0.3-2,0.6-3.1,0.9c-0.4,0.1-0.8,0.2-1.2,0.3
		c-2.1,0.6-4.3,1.2-6.5,1.9c-0.6,0.2-1.2,0.3-1.8,0.5c-1.2,0.3-2.5,0.7-3.7,1.1c-0.6,0.2-1.2,0.4-1.8,0.5c-0.4,0.1-0.9,0.2-1.3,0.4
		c-1.2,0.4-2.5,0.7-3.8,1.1c-0.9,0.2-1.7,0.5-2.6,0.7c-0.6,0.2-1.3,0.4-1.9,0.6c-0.5,0.2-1.1,0.3-1.6,0.5c-1.7,0.5-3.5,1-5.3,1.5
		c-0.4,0.1-0.7,0.2-1.1,0.3c-0.9,0.3-1.9,0.5-2.9,0.8c-1.3,0.4-2.6,0.7-3.9,1.1c-0.8,0.2-1.6,0.5-2.4,0.7c-1,0.3-1.9,0.6-2.9,0.8
		c-1.3,0.4-2.6,0.8-4,1.2c-1.1,0.3-2.2,0.6-3.3,1c-0.5,0.1-1,0.3-1.5,0.4c-1.3,0.4-2.5,0.7-3.8,1.1c-1.5,0.4-3,0.9-4.5,1.3
		c-0.7,0.2-1.5,0.4-2.2,0.6c-1,0.3-2.1,0.6-3.1,0.9c-1.8,0.5-3.5,1-5.4,1.5c-0.4,0.1-0.9,0.3-1.3,0.4c-1.5,0.4-3.1,0.9-4.7,1.3
		c-1.4,0.4-2.8,0.8-4.2,1.2c-1,0.3-2,0.6-3,0.9c-1.1,0.3-2.2,0.6-3.3,0.9c-1.7,0.5-3.4,1-5.2,1.5c-1,0.3-2.1,0.6-3.2,0.9
		c-1,0.3-2,0.6-3,0.9c-2.4,0.7-4.8,1.4-7.2,2.1c-0.4,0.1-0.8,0.2-1.1,0.3c-1.4,0.4-2.8,0.8-4.2,1.2c-0.9,0.3-1.8,0.5-2.7,0.8
		c-2,0.6-4,1.2-6.1,1.8c-1.1,0.3-2.2,0.6-3.3,1c-1.1,0.3-2.2,0.6-3.3,1c-2.1,0.6-4.2,1.2-6.3,1.8c-0.9,0.2-1.7,0.5-2.6,0.7
		c-1.6,0.5-3.3,1-4.9,1.4c-0.9,0.3-1.8,0.5-2.7,0.8c-2.1,0.6-4.2,1.2-6.3,1.8c-1.2,0.3-2.4,0.7-3.6,1c-1.9,0.5-3.8,1.1-5.6,1.6
		c-0.9,0.3-1.9,0.5-2.8,0.8c-2.1,0.6-4.1,1.2-6.2,1.8c-0.7,0.2-1.5,0.4-2.2,0.7c-2.3,0.7-4.5,1.3-6.8,2l0,0c1,2.9,2,5.9,3,8.8
		C1198.8,39.2,1294.9,20.4,1324,15.4z"/>
	<path class="st2" d="M1414.9,471.9c0.2-0.8,0.4-1.5,0.7-2.2c0.6-2.1,1.2-4.2,1.8-6.2c0.3-0.9,0.5-1.9,0.8-2.8
		c0.6-1.9,1.1-3.8,1.7-5.6c0.4-1.2,0.7-2.4,1.1-3.6c0.6-2.1,1.2-4.2,1.8-6.3c0.3-0.9,0.5-1.8,0.8-2.7c0.5-1.6,1-3.3,1.4-4.9
		c0.3-0.9,0.5-1.7,0.8-2.6c0.6-2.1,1.2-4.2,1.9-6.3c0.3-1.1,0.6-2.2,1-3.3c0.3-1.1,0.6-2.2,1-3.3c0.6-2,1.2-4.1,1.8-6.1
		c0.3-0.9,0.5-1.8,0.8-2.7c0.4-1.4,0.8-2.8,1.2-4.2c0.1-0.4,0.2-0.8,0.3-1.1c0.7-2.4,1.4-4.9,2.1-7.2c0.3-1,0.6-2,0.9-3
		c0.3-1.1,0.6-2.1,0.9-3.2c0.5-1.7,1-3.5,1.5-5.2c0.3-1.1,0.6-2.2,0.9-3.3c0.3-1,0.6-2,0.9-3c0.4-1.4,0.8-2.8,1.2-4.2
		c0.5-1.6,0.9-3.1,1.4-4.7c0.1-0.4,0.3-0.9,0.4-1.3c0.5-1.8,1-3.6,1.6-5.3c0.3-1,0.6-2.1,0.9-3.1c0.2-0.7,0.4-1.5,0.6-2.2
		c0.4-1.5,0.9-3,1.3-4.5c0.4-1.3,0.7-2.6,1.1-3.8c0.1-0.5,0.3-1,0.4-1.5c0.3-1.1,0.6-2.2,1-3.3c0.4-1.3,0.8-2.7,1.2-4
		c0.3-1,0.6-1.9,0.8-2.9c0.2-0.8,0.5-1.6,0.7-2.4c0.4-1.3,0.8-2.6,1.1-3.9c0.3-1,0.6-1.9,0.8-2.9c0.1-0.4,0.2-0.7,0.3-1.1
		c0.5-1.8,1-3.5,1.5-5.3c0.2-0.5,0.3-1.1,0.5-1.6c0.2-0.7,0.4-1.3,0.6-1.9c0.3-0.9,0.5-1.7,0.7-2.6c0.4-1.3,0.7-2.6,1.1-3.8
		c0.1-0.4,0.2-0.9,0.4-1.3c0.2-0.6,0.4-1.2,0.5-1.8c0.4-1.3,0.7-2.5,1.1-3.7c0.2-0.6,0.3-1.2,0.5-1.8c0.7-2.3,1.3-4.4,1.9-6.5
		c0.1-0.4,0.2-0.8,0.3-1.2c0.3-1,0.6-2.1,0.9-3.1c0.2-0.6,0.4-1.3,0.5-1.9c0.1-0.3,0.2-0.6,0.3-0.9c0.2-0.6,0.4-1.3,0.5-1.9
		c0.3-0.9,0.5-1.8,0.8-2.7c0-0.1,0.1-0.3,0.1-0.4c0.2-0.7,0.4-1.4,0.6-2.1c0.1-0.3,0.2-0.5,0.2-0.8c0.3-0.9,0.5-1.8,0.7-2.6
		c0.1-0.2,0.1-0.4,0.2-0.6c0.1-0.3,0.1-0.5,0.2-0.8c0.2-0.7,0.4-1.3,0.6-2c0.1-0.5,0.3-0.9,0.4-1.3c0.5-1.7,0.9-3.1,1.2-4.2
		c0.4-1.3,0.6-2.2,0.8-2.8c0.1-0.3,0.2-0.6,0.2-0.7c0-0.1,0-0.1,0-0.1c11.1-33.4,14-60.6,13.7-80.8c-0.9,41.8-78.7,244.8-92.7,281.1
		c6.2,2.3,12.5,4.4,18.8,6.6c0,0,0,0,0,0C1413.5,476.4,1414.2,474.1,1414.9,471.9z"/>
	<path class="st3" d="M1396.1,472.8c-16.3,136.5-297.8,920.8-297.8,920.8l13.5,11.4c11.1-17.5,16.3-30.9,16.3-30.9
		c66.2-161.6,204.9-623.6,284.8-895.5C1407.2,476.8,1401.6,474.8,1396.1,472.8z"/>
	<g>
		<path class="st3" d="M1045.2,146.9L608.1,277.3l440.1-123.8C1047.1,151.3,1046.2,149.1,1045.2,146.9z"/>
		<path class="st5" d="M1051,152.7l-5.9-5.9l0,0c1,2.2,2,4.5,3,6.7L1051,152.7z"/>
	</g>
	<path class="st3" d="M582.7,343.1c0,0-347.3,233.9-384.1,284.6l-6.6-10C191.9,617.7,499.3,371.3,582.7,343.1z"/>
	<path class="st3" d="M789.5,874c0,0-182.7,184.5-222.6,213.6l214.8-226L789.5,874z"/>
	<polygon class="st3" points="1106.7,512.2 1208.2,374.7 1089.8,509.6 	"/>
	<polygon class="st3" points="1367.9,461.9 1214.1,835.9 1359.7,458.4 	"/>
	<path class="st6" d="M933.6,1477.5"/>
	<g>
		<path class="st7" d="M94.1,433.2c252.7-92.7,762.5-243,946.5-296.6c-6.5-15.4-12.6-31.5-18.2-48.3
			c-272.3,79.5-734.9,217.6-896.7,283.6c0,0-91.6,35.6-108.5,118.8C56,443.2,89.4,434.2,94.1,433.2z"/>
		<path class="st7" d="M530.4,1106.4c166.5-153.2,364-376.2,500.3-536.3c68.5-80.4,128.8-153.4,173.9-208.8
			c-11.7-10.2-22.7-20.5-33.1-31c-47.6-47-92.4-107-126.4-183.4c-97.9,28.5-290.1,85-486.4,145.6l24,50.7l-4.2,2.7
			c-3.1,2-315.5,202.6-368.1,255.2l-0.4,0.4c-0.5,0.4-49,40.8-90.5,89.8c-6.4,7.5-12.8,15.6-19,23.9
			c58.9,95.2,160.7,240,306.7,379.5c21.1,22.1,42.3,43.1,63.4,63.1c47.9-39.7,59.4-51,59.5-51.1L530.4,1106.4z"/>
		<path class="st7" d="M985.1,1356.4c102.9-219.9,274.9-666.4,364.3-902.6c-53.1-24.1-98.1-53.4-136.2-85.3
			c-143.4,175.7-440.7,530.3-675.1,746c-1.2,1.2-13.1,12.7-59.1,50.9c211.8,198.4,414.2,295.1,414.2,295.1c9.2,4.8,18,8.9,26.6,12.2
			c38.7-43.4,64.8-115.1,65.1-115.8L985.1,1356.4z"/>
		<path class="st7" d="M202.7,592.9c51.2-50.9,326.7-228.8,365.6-253.8l-20.4-43.2c-166.8,51.6-335.3,105.8-450.3,148l-0.4,0.2
			l-0.4,0.1c-0.1,0-15.7,3.4-37.8,20.9c-16.9,13.4-31.7,30.2-44.2,47.7c-0.9,27.1,5.9,58.4,24.9,94.3c0,0,18.1,37.7,54.6,97.7
			C137.5,647.6,196.9,597.7,202.7,592.9z"/>
		<path class="st7" d="M1128,1374.1c66.2-161.6,204.9-623.6,284.8-895.5c-18.6-6.1-36.3-12.9-53.2-20.2
			c-89.6,236.4-261.4,682.4-364.3,902.6c-1.9,5.4-26.4,71.5-64.2,115.8C1070.4,1521.8,1128,1374.1,1128,1374.1z"/>
		<path class="st4" d="M1359.7,458.4c-3.5-1.5-6.9-3-10.3-4.5c-89.5,236.2-261.4,682.7-364.3,902.6l-0.2,0.5
			c-0.3,0.7-26.3,72.4-65.1,115.8c3.8,1.5,7.6,2.8,11.4,4c37.7-44.3,62.2-110.4,64.2-115.8C1098.3,1140.8,1270.1,694.8,1359.7,458.4
			z"/>
		<path class="st4" d="M1213.2,368.6c-2.9-2.4-5.7-4.8-8.5-7.3c-45.1,55.3-105.4,128.3-173.9,208.8
			c-136.3,160.1-333.8,383-500.3,536.3l-0.2,0.2c-0.1,0.1-11.5,11.4-59.5,51.1c2.7,2.6,5.5,5.2,8.2,7.8c46-38.1,57.9-49.7,59.1-50.9
			C772.5,898.9,1069.8,544.3,1213.2,368.6z"/>
		<path class="st4" d="M58.9,464.9c22.1-17.5,37.7-20.8,37.8-20.9l0.4-0.1l0.4-0.2c115-42.2,283.5-96.4,450.3-148l-2.1-4.4l10.1-4.8
			l2.8,5.9c196.3-60.6,388.5-117.1,486.4-145.6c-1.5-3.4-3-6.9-4.5-10.4C856.6,190.1,346.9,340.4,94.1,433.2
			c-4.7,1.1-38.1,10-76.8,57.5c-1.4,7-2.3,14.3-2.6,22C27.2,495.2,42,478.3,58.9,464.9z"/>
		<path class="st4" d="M210.1,601.3l0.4-0.4c52.5-52.5,364.9-253.1,368.1-255.2l4.2-2.7l-24-50.7l-2.8-5.9l-10.1,4.8l2.1,4.4
			l20.4,43.2c-38.9,25-314.4,202.9-365.6,253.8c-5.9,4.9-65.3,54.7-108.5,111.8c2.1,3.4,4.2,6.8,6.3,10.3c6.2-8.3,12.6-16.3,19-23.9
			C161.1,642.1,209.6,601.7,210.1,601.3z"/>
	</g>
	<ellipse transform="matrix(0.7071 -0.7071 0.7071 0.7071 6.1752 1074.4198)" class="st4" cx="1300" cy="529.8" rx="8.3" ry="8.3"/>
	
		<ellipse transform="matrix(0.7071 -0.7071 0.7071 0.7071 -26.8503 1073.2917)" class="st4" cx="1282.2" cy="569.1" rx="8.3" ry="8.3"/>
	
		<ellipse transform="matrix(0.7071 -0.7071 0.7071 0.7071 -59.5506 1075.3352)" class="st4" cx="1268.3" cy="609.6" rx="8.3" ry="8.3"/>
	
		<ellipse transform="matrix(0.7071 -0.7071 0.7071 0.7071 -92.1384 1075.5507)" class="st4" cx="1252.2" cy="649" rx="8.3" ry="8.3"/>
	
		<ellipse transform="matrix(0.7071 -0.7071 0.7071 0.7071 -490.1349 1121.2443)" class="st4" cx="1108.4" cy="1152.3" rx="8.3" ry="8.3"/>
	
		<ellipse transform="matrix(0.7071 -0.7071 0.7071 0.7071 -523.0132 1121.3394)" class="st4" cx="1092.1" cy="1192" rx="8.3" ry="8.3"/>
	
		<ellipse transform="matrix(0.7071 -0.7071 0.7071 0.7071 -558.2975 1120.4377)" class="st4" cx="1073.3" cy="1234.1" rx="8.3" ry="8.3"/>
	
		<ellipse transform="matrix(0.7071 -0.7071 0.7071 0.7071 -608.5911 1119.2667)" class="st4" cx="1046.8" cy="1294.3" rx="8.3" ry="8.3"/>
	
		<ellipse transform="matrix(0.7071 -0.7071 0.7071 0.7071 -639.8873 1121.2385)" class="st4" cx="1033.5" cy="1333" rx="8.3" ry="8.3"/>
	
		<ellipse transform="matrix(0.7071 -0.7071 0.7071 0.7071 -555.4573 1080.4731)" class="st4" cx="1026.5" cy="1210.7" rx="8.3" ry="8.3"/>
	
		<ellipse transform="matrix(0.7071 -0.7071 0.7071 0.7071 -606.8531 1081.9631)" class="st4" cx="1002.6" cy="1273.5" rx="8.3" ry="8.3"/>
	
		<ellipse transform="matrix(0.7071 -0.7071 0.7071 0.7071 178.8175 779.2148)" class="st4" cx="1030" cy="173.8" rx="8.3" ry="8.3"/>
	
		<ellipse transform="matrix(0.7071 -0.7071 0.7071 0.7071 160.9067 757.3827)" class="st4" cx="994.7" cy="184.5" rx="8.3" ry="8.3"/>
	
		<ellipse transform="matrix(0.7071 -0.7071 0.7071 0.7071 140.3313 733.9843)" class="st4" cx="956.2" cy="197.6" rx="8.3" ry="8.3"/>
	
		<ellipse transform="matrix(0.7071 -0.7071 0.7071 0.7071 -98.8524 468.9026)" class="st4" cx="516.6" cy="353.8" rx="8.3" ry="8.3"/>
	
		<ellipse transform="matrix(0.7071 -0.7071 0.7071 0.7071 -124.4061 449.1369)" class="st4" cx="480" cy="374.7" rx="8.3" ry="8.3"/>
	
		<ellipse transform="matrix(0.7071 -0.7071 0.7071 0.7071 -154.5254 311.0113)" class="st4" cx="298.2" cy="342" rx="8.3" ry="8.3"/>
	
		<ellipse transform="matrix(0.7071 -0.7071 0.7071 0.7071 -180.4883 277.8569)" class="st4" cx="245.2" cy="356.8" rx="8.3" ry="8.3"/>
	
		<ellipse transform="matrix(0.7071 -0.7071 0.7071 0.7071 -204.517 249.7821)" class="st4" cx="199.3" cy="371.8" rx="8.3" ry="8.3"/>
	
		<ellipse transform="matrix(0.7071 -0.7071 0.7071 0.7071 -405.3285 820.6691)" class="st4" cx="788" cy="899.6" rx="8.3" ry="8.3"/>
	
		<ellipse transform="matrix(0.7071 -0.7071 0.7071 0.7071 -442.8495 808.6138)" class="st4" cx="754.7" cy="938.9" rx="8.3" ry="8.3"/>
	
		<ellipse transform="matrix(0.7071 -0.7071 0.7071 0.7071 -527.3489 725.3548)" class="st4" cx="611.9" cy="999.2" rx="8.3" ry="8.3"/>
	
		<ellipse transform="matrix(0.7071 -0.7071 0.7071 0.7071 -562.1577 710.9365)" class="st4" cx="577.1" cy="1034.1" rx="8.3" ry="8.3"/>
	
		<ellipse transform="matrix(0.7071 -0.7071 0.7071 0.7071 71.4375 973.3803)" class="st4" cx="1210.7" cy="400.5" rx="8.3" ry="8.3"/>
	
		<ellipse transform="matrix(0.7071 -0.7071 0.7071 0.7071 44.7811 964.6631)" class="st4" cx="1186.8" cy="428.3" rx="8.3" ry="8.3"/>
	
		<ellipse transform="matrix(0.7071 -0.7071 0.7071 0.7071 -8.3481 951.7214)" class="st4" cx="1144.7" cy="485.9" rx="8.3" ry="8.3"/>
	
		<ellipse transform="matrix(0.7071 -0.7071 0.7071 0.7071 -38.1226 945.1451)" class="st4" cx="1121.8" cy="518.6" rx="8.3" ry="8.3"/>
	
		<ellipse transform="matrix(0.7071 -0.7071 0.7071 0.7071 84.8816 938.3975)" class="st4" cx="1175.2" cy="366.7" rx="8.3" ry="8.3"/>
	
		<ellipse transform="matrix(0.7071 -0.7071 0.7071 0.7071 -683.3929 1118.6321)" class="st2" cx="1008.6" cy="1384.2" rx="8.3" ry="8.3"/>
	
		<ellipse transform="matrix(0.7071 -0.7071 0.7071 0.7071 -713.9542 1116.6948)" class="st2" cx="991" cy="1420.2" rx="8.3" ry="8.3"/>
	
		<ellipse transform="matrix(0.7071 -0.7071 0.7071 0.7071 -641.5845 717.8102)" class="st2" cx="545.7" cy="1133.4" rx="8.3" ry="8.3"/>
	
		<ellipse transform="matrix(0.7071 -0.7071 0.7071 0.7071 -409.1572 324.3323)" class="st2" cx="186.9" cy="656.1" rx="8.3" ry="8.3"/>
	
		<ellipse transform="matrix(0.7071 -0.7071 0.7071 0.7071 -434.9918 313.6312)" class="st2" cx="161.1" cy="681.9" rx="8.3" ry="8.3"/>
	<path class="st3" d="M1030.5,86.6c0,0,37.5,149.1,155.3,257.8c0,0-99.3-71.6-164.4-255.2L1030.5,86.6z"/>
	<circle class="st4" cx="867.5" cy="623.5" r="257"/>
	<circle cx="857.6" cy="613.7" r="240"/>
	<path class="st2" d="M1094.5,513.6c-12.9-30.6-31.5-58.1-55.1-81.7c-23.6-23.6-51.1-42.1-81.7-55.1
		c-31.7-13.4-65.4-20.2-100.1-20.2c-34.7,0-68.4,6.8-100.1,20.2c-30.6,12.9-58.1,31.5-81.7,55.1c-23.6,23.6-42.1,51.1-55.1,81.7
		c-13.4,31.7-20.2,65.4-20.2,100.1c0,34.7,6.8,68.4,20.2,100.1c12.9,30.6,31.5,58.1,55.1,81.7c23.6,23.6,51.1,42.1,81.7,55.1
		c31.7,13.4,65.4,20.2,100.1,20.2c34.7,0,68.4-6.8,100.1-20.2c30.6-12.9,58.1-31.5,81.7-55.1c23.6-23.6,42.1-51.1,55.1-81.7
		c13.4-31.7,20.2-65.4,20.2-100.1C1114.7,579,1107.9,545.3,1094.5,513.6z M1061.2,699.6c-11.1,26.3-27.1,49.9-47.3,70.2
		c-18.6,18.6-40,33.6-63.8,44.5l1.1-22.4c4.7-29.9,3.3-116.7,3.3-116.7c51.3-30.8,61.6-65.8,61.6-65.8c5.2-11.1,6.1-21.9,5.1-31
		c-0.7-10.4-5.2-22.5-9.9-32.5c-2.9-7.7-7-14.8-11.4-21c0,0,0,0,0,0l0,0c-12.9-18-29.1-28.9-29.1-28.9c-7.5-45.3-30.3-63-30.3-63
		c-7.9-9.3-13.5-2.3-13.5-2.3c-1.4,3.3-11.2,16.3-11.2,16.3c-12.6,14-14,32.7-14,32.7c-52.7-7.9-77.9,10.3-77.9,10.3
		c0.5-11.7-10.3-21.9-10.3-21.9l-25.2-28c-12.1-8.9-15.9,3.7-15.9,3.7c-7.9,17.7-17.3,37.8-17.3,37.8c-9.3,18.7-7.5,27.5-7.5,27.5
		c0.5,20.1,7.9,29.4,7.9,29.4c-3.3,8.9-8.4,25.7-8.4,25.7c-6.5,18.2,1.9,33.6,1.9,33.6c6.1,23.3,43.9,56,43.9,56
		s-12.9,18.3-24.4,29.2c-1.1,0.9-2.1,1.9-3.2,2.8c0,0,0,0,0,0c-0.3,0.2-0.5,0.4-0.7,0.7c-24.7,22.6-55,59.1-69.3,76.8
		c-17.3-18.8-31.2-40.2-41.1-63.7c-11.5-27.2-17.4-56.1-17.4-86c0-29.8,5.8-58.8,17.4-86c11.1-26.3,27.1-49.9,47.3-70.2
		s43.9-36.2,70.2-47.3c27.2-11.5,56.1-17.4,86-17.4c29.8,0,58.8,5.8,86,17.4c26.3,11.1,49.9,27.1,70.2,47.3
		c20.3,20.3,36.2,43.9,47.3,70.2c11.5,27.2,17.4,56.1,17.4,86C1078.5,643.5,1072.7,672.4,1061.2,699.6z"/>
	<g>
		<path class="st8" d="M947.8,562.7c0,0,9.4-7.2,0-11.1c0,0-9.2-2.7-18.1,1.9c0,0-2.5,2.7,0,5.3C929.7,558.8,935,567.5,947.8,562.7z
			"/>
		<path class="st8" d="M979.1,573.5c-2.1,0-3.9,1.7-3.9,3.9c0,0.2,0,0.4,0.1,0.6c-0.6,2.4-3.2,8.5-13.3,10.6l-0.3,0.1l-0.3,0.1
			c0,0-2.8,0.9-6.2,0.4c-4.9-0.8-8.8-4-11.8-9.6l-2.9-5.4c-0.7,1.8-3,7.7-4.8,11.2c-0.3,0.7-0.7,1.5-1.2,2.3
			c-2.7,4.1-7.6,6.3-14.6,6.6l-0.3,0c0,0-3.6,0.4-7.2-0.9c-4.1-1.4-6.5-4.3-7.4-8.7c0-0.2,0.1-0.5,0.1-0.7c0-2.1-1.7-3.9-3.9-3.9
			c-2.1,0-3.9,1.7-3.9,3.9c0,0.7,0.2,1.4,0.5,1.9c1.8,9,7.7,12.8,12.4,14.4c3.1,1,6,1.2,8,1.2c1,0,1.7-0.1,2-0.1
			c12-0.5,17.8-5.8,20.5-10.2c0.3-0.5,0.6-1,0.9-1.6c4.2,4.5,8.8,6.2,12.4,6.7c4.7,0.7,8.5-0.3,9.6-0.6c14.1-3,17.8-12.4,18.7-16.3
			c0.3-0.6,0.6-1.3,0.6-2C982.9,575.2,981.2,573.5,979.1,573.5z"/>
		
			<ellipse transform="matrix(0.8919 -0.4522 0.4522 0.8919 -135.9152 499.1867)" class="st8" cx="976.3" cy="533.9" rx="13.9" ry="23.1"/>
		
			<ellipse transform="matrix(0.6486 -0.7612 0.7612 0.6486 -97.035 849.3367)" class="st8" cx="871.2" cy="529.7" rx="27" ry="19.1"/>
	</g>
	<path class="st3" d="M944.5,371.2c0,0-235.2-76-323.5,140.8c0,0-67.2,194.8,55.8,283.4c0,0-111.1-81.4-48.4-280.4
		C628.4,515.1,682,320.7,944.5,371.2z"/>
	<path id="capsule_body_1_" class="st9" d="M1128,1374.1c66.2-161.6,204.9-623.6,284.8-895.5c-104.8-34.7-183.2-89.4-241.3-148.3
		c-59.2-58.4-114.1-137-149.1-242.1c-272.3,79.5-734.9,217.6-896.7,283.6c0,0-174.6,67.8-86.1,235.1c0,0,120.5,251.4,367.7,487.5
		c235.2,246.2,485.9,366,485.9,366C1060,1548.5,1128,1374.1,1128,1374.1z"/>
	<path id="cap_1_" class="st4" d="M1414.9,471.9c0.2-0.8,0.4-1.5,0.7-2.2c0.6-2.1,1.2-4.2,1.8-6.2c0.3-0.9,0.5-1.9,0.8-2.8
		c0.6-1.9,1.1-3.8,1.7-5.6c0.4-1.2,0.7-2.4,1.1-3.6c0.6-2.1,1.2-4.2,1.8-6.3c0.3-0.9,0.5-1.8,0.8-2.7c0.5-1.6,1-3.3,1.4-4.9
		c0.3-0.9,0.5-1.7,0.8-2.6c0.6-2.1,1.2-4.2,1.9-6.3c0.3-1.1,0.6-2.2,1-3.3c0.3-1.1,0.6-2.2,1-3.3c0.6-2,1.2-4.1,1.8-6.1
		c0.3-0.9,0.5-1.8,0.8-2.7c0.4-1.4,0.8-2.8,1.2-4.2c0.1-0.4,0.2-0.8,0.3-1.1c0.7-2.4,1.4-4.9,2.1-7.2c0.3-1,0.6-2,0.9-3
		c0.3-1.1,0.6-2.1,0.9-3.2c0.5-1.7,1-3.5,1.5-5.2c0.3-1.1,0.6-2.2,0.9-3.3c0.3-1,0.6-2,0.9-3c0.4-1.4,0.8-2.8,1.2-4.2
		c0.5-1.6,0.9-3.1,1.4-4.7c0.1-0.4,0.3-0.9,0.4-1.3c0.5-1.8,1-3.6,1.6-5.3c0.3-1,0.6-2.1,0.9-3.1c0.2-0.7,0.4-1.5,0.6-2.2
		c0.4-1.5,0.9-3,1.3-4.5c0.4-1.3,0.7-2.6,1.1-3.8c0.1-0.5,0.3-1,0.4-1.5c0.3-1.1,0.6-2.2,1-3.3c0.4-1.3,0.8-2.7,1.2-4
		c0.3-1,0.6-1.9,0.8-2.9c0.2-0.8,0.5-1.6,0.7-2.4c0.4-1.3,0.8-2.6,1.1-3.9c0.3-1,0.6-1.9,0.8-2.9c0.1-0.4,0.2-0.7,0.3-1.1
		c0.5-1.8,1-3.5,1.5-5.3c0.2-0.5,0.3-1.1,0.5-1.6c0.2-0.7,0.4-1.3,0.6-1.9c0.3-0.9,0.5-1.7,0.7-2.6c0.4-1.3,0.7-2.6,1.1-3.8
		c0.1-0.4,0.2-0.9,0.4-1.3c0.2-0.6,0.4-1.2,0.5-1.8c0.4-1.3,0.7-2.5,1.1-3.7c0.2-0.6,0.3-1.2,0.5-1.8c0.7-2.3,1.3-4.4,1.9-6.5
		c0.1-0.4,0.2-0.8,0.3-1.2c0.3-1,0.6-2.1,0.9-3.1c0.2-0.6,0.4-1.3,0.5-1.9c0.1-0.3,0.2-0.6,0.3-0.9c0.2-0.6,0.4-1.3,0.5-1.9
		c0.3-0.9,0.5-1.8,0.8-2.7c0-0.1,0.1-0.3,0.1-0.4c0.2-0.7,0.4-1.4,0.6-2.1c0.1-0.3,0.2-0.5,0.2-0.8c0.3-0.9,0.5-1.8,0.7-2.6
		c0.1-0.2,0.1-0.4,0.2-0.6c0.1-0.3,0.1-0.5,0.2-0.8c0.2-0.7,0.4-1.3,0.6-2c0.1-0.5,0.3-0.9,0.4-1.3c0.5-1.7,0.9-3.1,1.2-4.2
		c0.4-1.3,0.6-2.2,0.8-2.8c0.1-0.3,0.2-0.6,0.2-0.7c0-0.1,0-0.1,0-0.1c26-78.4,7.1-122.5,7.1-122.5c-15.5-32.7-34.8-57.6-52.1-75.5
		c-18-17.3-43-36.7-75.8-52.3c0,0-44.2-19-122.7,6.9c0,0-0.1,0-0.1,0c-0.1,0-0.4,0.1-0.7,0.2c-0.6,0.2-1.5,0.4-2.8,0.8
		c-1.1,0.3-2.6,0.7-4.2,1.2c-0.4,0.1-0.9,0.2-1.3,0.4c-0.6,0.2-1.3,0.4-2,0.6c-0.3,0.1-0.5,0.1-0.8,0.2c-0.2,0.1-0.4,0.1-0.6,0.2
		c-0.8,0.2-1.7,0.5-2.6,0.7c-0.3,0.1-0.5,0.2-0.8,0.2c-0.7,0.2-1.3,0.4-2.1,0.6c-0.1,0-0.3,0.1-0.4,0.1c-0.9,0.3-1.8,0.5-2.7,0.8
		c-0.6,0.2-1.2,0.4-1.9,0.5c-0.3,0.1-0.6,0.2-0.9,0.3c-0.6,0.2-1.2,0.4-1.9,0.5c-1,0.3-2,0.6-3.1,0.9c-0.4,0.1-0.8,0.2-1.2,0.3
		c-2.1,0.6-4.3,1.2-6.5,1.9c-0.6,0.2-1.2,0.3-1.8,0.5c-1.2,0.3-2.5,0.7-3.7,1.1c-0.6,0.2-1.2,0.4-1.8,0.5c-0.4,0.1-0.9,0.2-1.3,0.4
		c-1.2,0.4-2.5,0.7-3.8,1.1c-0.9,0.2-1.7,0.5-2.6,0.7c-0.6,0.2-1.3,0.4-1.9,0.6c-0.5,0.2-1.1,0.3-1.6,0.5c-1.7,0.5-3.5,1-5.3,1.5
		c-0.4,0.1-0.7,0.2-1.1,0.3c-0.9,0.3-1.9,0.5-2.9,0.8c-1.3,0.4-2.6,0.7-3.9,1.1c-0.8,0.2-1.6,0.5-2.4,0.7c-1,0.3-1.9,0.6-2.9,0.8
		c-1.3,0.4-2.6,0.8-4,1.2c-1.1,0.3-2.2,0.6-3.3,1c-0.5,0.1-1,0.3-1.5,0.4c-1.3,0.4-2.5,0.7-3.8,1.1c-1.5,0.4-3,0.9-4.5,1.3
		c-0.7,0.2-1.5,0.4-2.2,0.6c-1,0.3-2.1,0.6-3.1,0.9c-1.8,0.5-3.5,1-5.4,1.5c-0.4,0.1-0.9,0.3-1.3,0.4c-1.5,0.4-3.1,0.9-4.7,1.3
		c-1.4,0.4-2.8,0.8-4.2,1.2c-1,0.3-2,0.6-3,0.9c-1.1,0.3-2.2,0.6-3.3,0.9c-1.7,0.5-3.4,1-5.2,1.5c-1,0.3-2.1,0.6-3.2,0.9
		c-1,0.3-2,0.6-3,0.9c-2.4,0.7-4.8,1.4-7.2,2.1c-0.4,0.1-0.8,0.2-1.1,0.3c-1.4,0.4-2.8,0.8-4.2,1.2c-0.9,0.3-1.8,0.5-2.7,0.8
		c-2,0.6-4,1.2-6.1,1.8c-1.1,0.3-2.2,0.6-3.3,1c-1.1,0.3-2.2,0.6-3.3,1c-2.1,0.6-4.2,1.2-6.3,1.8c-0.9,0.2-1.7,0.5-2.6,0.7
		c-1.6,0.5-3.3,1-4.9,1.4c-0.9,0.3-1.8,0.5-2.7,0.8c-2.1,0.6-4.2,1.2-6.3,1.8c-1.2,0.3-2.4,0.7-3.6,1c-1.9,0.5-3.8,1.1-5.6,1.6
		c-0.9,0.3-1.9,0.5-2.8,0.8c-2.1,0.6-4.1,1.2-6.2,1.8c-0.7,0.2-1.5,0.4-2.2,0.7c-2.3,0.7-4.5,1.3-6.8,2l0,0
		c35,105.1,89.9,183.7,149.1,242.1c58.2,58.9,136.5,113.6,241.3,148.3l0,0C1413.5,476.4,1414.2,474.1,1414.9,471.9z"/>
	<path class="st8" d="M987.9,1313.9c0,0-6.7-17.1-5.7-35.5C982.2,1278.5,994.9,1297.1,987.9,1313.9z"/>
	<path class="st8" d="M979.1,1328.4c0,0-7.7-11.2-4-27.3C975.1,1301.1,985.4,1311.9,979.1,1328.4z"/>
	<path class="st8" d="M1321.5,456.7c0,0-3.9,22.8,2.6,45.5C1324.1,502.1,1332.4,472,1321.5,456.7z"/>
	<path class="st8" d="M1308.8,478.7c0,0,10.4,12,4.5,26.1C1313.3,504.8,1305.6,496.3,1308.8,478.7z"/>
	<path class="st8" d="M1014.6,127.5c0,0,9.5-12.3,1.1-28.2C1015.7,99.3,1008.5,112.6,1014.6,127.5z"/>
	<path class="st8" d="M1001.6,126.9c0,0,5-8.4-1-16.9C1000.6,110,995.5,120.8,1001.6,126.9z"/>
	<path class="st8" d="M541,337.9c0,0,8.6-10.3-3-26.9C538,311,533.8,328.8,541,337.9z"/>
	<path class="st8" d="M528.8,341.5c0,0,5.9-9.5-4-17.3C524.9,324.2,521.6,337.7,528.8,341.5z"/>
	<path class="st3" d="M1308.9,60.7c0,0,3.6-10.8,15.7-7.7C1324.5,53,1318.1,60.6,1308.9,60.7z"/>
	<path class="st3" d="M1324.1,101.7c0,0,44.4,69.5,80.2,93.4c0,0,2.5,5.8-6.8,0.5C1397.5,195.6,1348.2,156.3,1324.1,101.7z"/>
	<path class="st3" d="M1444.3,212c0,0,10.2-7.2,9.6-17.9C1453.9,194.1,1464,210.5,1444.3,212z"/>
	<path class="st3" d="M1466.9,200.9c0,0,0.7,11.9-4.3,13.6C1462.6,214.5,1476.2,211.5,1466.9,200.9z"/>
	<path class="st3" d="M1328.3,44.4c0,0-16.4-4.5-26.4,5.4C1301.9,49.8,1306.4,27.1,1328.3,44.4z"/>
	<path class="st3" d="M1324,15.4c-20.9-2-52.8-0.8-94.3,12.9c0,0-0.1,0-0.1,0c-0.1,0-0.4,0.1-0.7,0.2c-0.6,0.2-1.5,0.4-2.8,0.8
		c-1.1,0.3-2.6,0.7-4.2,1.2c-0.4,0.1-0.9,0.2-1.3,0.4c-0.6,0.2-1.3,0.4-2,0.6c-0.3,0.1-0.5,0.1-0.8,0.2c-0.2,0.1-0.4,0.1-0.6,0.2
		c-0.8,0.2-1.7,0.5-2.6,0.7c-0.3,0.1-0.5,0.2-0.8,0.2c-0.7,0.2-1.3,0.4-2.1,0.6c-0.1,0-0.3,0.1-0.4,0.1c-0.9,0.3-1.8,0.5-2.7,0.8
		c-0.6,0.2-1.2,0.4-1.9,0.5c-0.3,0.1-0.6,0.2-0.9,0.3c-0.6,0.2-1.2,0.4-1.9,0.5c-1,0.3-2,0.6-3.1,0.9c-0.4,0.1-0.8,0.2-1.2,0.3
		c-2.1,0.6-4.3,1.2-6.5,1.9c-0.6,0.2-1.2,0.3-1.8,0.5c-1.2,0.3-2.5,0.7-3.7,1.1c-0.6,0.2-1.2,0.4-1.8,0.5c-0.4,0.1-0.9,0.2-1.3,0.4
		c-1.2,0.4-2.5,0.7-3.8,1.1c-0.9,0.2-1.7,0.5-2.6,0.7c-0.6,0.2-1.3,0.4-1.9,0.6c-0.5,0.2-1.1,0.3-1.6,0.5c-1.7,0.5-3.5,1-5.3,1.5
		c-0.4,0.1-0.7,0.2-1.1,0.3c-0.9,0.3-1.9,0.5-2.9,0.8c-1.3,0.4-2.6,0.7-3.9,1.1c-0.8,0.2-1.6,0.5-2.4,0.7c-1,0.3-1.9,0.6-2.9,0.8
		c-1.3,0.4-2.6,0.8-4,1.2c-1.1,0.3-2.2,0.6-3.3,1c-0.5,0.1-1,0.3-1.5,0.4c-1.3,0.4-2.5,0.7-3.8,1.1c-1.5,0.4-3,0.9-4.5,1.3
		c-0.7,0.2-1.5,0.4-2.2,0.6c-1,0.3-2.1,0.6-3.1,0.9c-1.8,0.5-3.5,1-5.4,1.5c-0.4,0.1-0.9,0.3-1.3,0.4c-1.5,0.4-3.1,0.9-4.7,1.3
		c-1.4,0.4-2.8,0.8-4.2,1.2c-1,0.3-2,0.6-3,0.9c-1.1,0.3-2.2,0.6-3.3,0.9c-1.7,0.5-3.4,1-5.2,1.5c-1,0.3-2.1,0.6-3.2,0.9
		c-1,0.3-2,0.6-3,0.9c-2.4,0.7-4.8,1.4-7.2,2.1c-0.4,0.1-0.8,0.2-1.1,0.3c-1.4,0.4-2.8,0.8-4.2,1.2c-0.9,0.3-1.8,0.5-2.7,0.8
		c-2,0.6-4,1.2-6.1,1.8c-1.1,0.3-2.2,0.6-3.3,1c-1.1,0.3-2.2,0.6-3.3,1c-2.1,0.6-4.2,1.2-6.3,1.8c-0.9,0.2-1.7,0.5-2.6,0.7
		c-1.6,0.5-3.3,1-4.9,1.4c-0.9,0.3-1.8,0.5-2.7,0.8c-2.1,0.6-4.2,1.2-6.3,1.8c-1.2,0.3-2.4,0.7-3.6,1c-1.9,0.5-3.8,1.1-5.6,1.6
		c-0.9,0.3-1.9,0.5-2.8,0.8c-2.1,0.6-4.1,1.2-6.2,1.8c-0.7,0.2-1.5,0.4-2.2,0.7c-2.3,0.7-4.5,1.3-6.8,2l0,0c1,2.9,2,5.9,3,8.8
		C1198.8,39.2,1294.9,20.4,1324,15.4z"/>
	<path class="st2" d="M1415.9,471.9c0.2-0.8,0.4-1.5,0.7-2.2c0.6-2.1,1.2-4.2,1.8-6.2c0.3-0.9,0.5-1.9,0.8-2.8
		c0.6-1.9,1.1-3.8,1.7-5.6c0.4-1.2,0.7-2.4,1.1-3.6c0.6-2.1,1.2-4.2,1.8-6.3c0.3-0.9,0.5-1.8,0.8-2.7c0.5-1.6,1-3.3,1.4-4.9
		c0.3-0.9,0.5-1.7,0.8-2.6c0.6-2.1,1.2-4.2,1.9-6.3c0.3-1.1,0.6-2.2,1-3.3c0.3-1.1,0.6-2.2,1-3.3c0.6-2,1.2-4.1,1.8-6.1
		c0.3-0.9,0.5-1.8,0.8-2.7c0.4-1.4,0.8-2.8,1.2-4.2c0.1-0.4,0.2-0.8,0.3-1.1c0.7-2.4,1.4-4.9,2.1-7.2c0.3-1,0.6-2,0.9-3
		c0.3-1.1,0.6-2.1,0.9-3.2c0.5-1.7,1-3.5,1.5-5.2c0.3-1.1,0.6-2.2,0.9-3.3c0.3-1,0.6-2,0.9-3c0.4-1.4,0.8-2.8,1.2-4.2
		c0.5-1.6,0.9-3.1,1.4-4.7c0.1-0.4,0.3-0.9,0.4-1.3c0.5-1.8,1-3.6,1.6-5.3c0.3-1,0.6-2.1,0.9-3.1c0.2-0.7,0.4-1.5,0.6-2.2
		c0.4-1.5,0.9-3,1.3-4.5c0.4-1.3,0.7-2.6,1.1-3.8c0.1-0.5,0.3-1,0.4-1.5c0.3-1.1,0.6-2.2,1-3.3c0.4-1.3,0.8-2.7,1.2-4
		c0.3-1,0.6-1.9,0.8-2.9c0.2-0.8,0.5-1.6,0.7-2.4c0.4-1.3,0.8-2.6,1.1-3.9c0.3-1,0.6-1.9,0.8-2.9c0.1-0.4,0.2-0.7,0.3-1.1
		c0.5-1.8,1-3.5,1.5-5.3c0.2-0.5,0.3-1.1,0.5-1.6c0.2-0.7,0.4-1.3,0.6-1.9c0.3-0.9,0.5-1.7,0.7-2.6c0.4-1.3,0.7-2.6,1.1-3.8
		c0.1-0.4,0.2-0.9,0.4-1.3c0.2-0.6,0.4-1.2,0.5-1.8c0.4-1.3,0.7-2.5,1.1-3.7c0.2-0.6,0.3-1.2,0.5-1.8c0.7-2.3,1.3-4.4,1.9-6.5
		c0.1-0.4,0.2-0.8,0.3-1.2c0.3-1,0.6-2.1,0.9-3.1c0.2-0.6,0.4-1.3,0.5-1.9c0.1-0.3,0.2-0.6,0.3-0.9c0.2-0.6,0.4-1.3,0.5-1.9
		c0.3-0.9,0.5-1.8,0.8-2.7c0-0.1,0.1-0.3,0.1-0.4c0.2-0.7,0.4-1.4,0.6-2.1c0.1-0.3,0.2-0.5,0.2-0.8c0.3-0.9,0.5-1.8,0.7-2.6
		c0.1-0.2,0.1-0.4,0.2-0.6c0.1-0.3,0.1-0.5,0.2-0.8c0.2-0.7,0.4-1.3,0.6-2c0.1-0.5,0.3-0.9,0.4-1.3c0.5-1.7,0.9-3.1,1.2-4.2
		c0.4-1.3,0.6-2.2,0.8-2.8c0.1-0.3,0.2-0.6,0.2-0.7c0-0.1,0-0.1,0-0.1c11.1-33.4,14-60.6,13.7-80.8c-0.9,41.8-78.7,244.8-92.7,281.1
		c6.2,2.3,12.5,4.4,18.8,6.6c0,0,0,0,0,0C1414.5,476.4,1415.2,474.1,1415.9,471.9z"/>
	<g>
		<path class="st8" d="M1045.2,146.9L608.1,277.3l440.1-123.8C1047.1,151.3,1046.2,149.1,1045.2,146.9z"/>
		<path class="st10" d="M1051,152.7l-5.9-5.9l0,0c1,2.2,2,4.5,3,6.7L1051,152.7z"/>
	</g>
	<path class="st8" d="M1412.9,478.6c-5.7-1.9-11.3-3.8-16.8-5.8c-15.4,128.7-266.7,833.8-295.2,913.4
		c-549.6-205.7-792.2-528-899-762.5c50.3-57.9,380.9-280.6,380.9-280.6c-77,26-344.6,237.8-385.5,270.4
		c-46.8-105.4-66-192-73.8-240.7c-20.6,8.9-166,78.4-83.7,234.1c0,0,120.5,251.4,367.7,487.5c235.2,246.2,485.9,366,485.9,366
		c120.6,63.6,189.6-9.9,218.5-55.5l0,0c0.1-0.1,0.1-0.2,0.2-0.3c0.6-0.9,1.1-1.8,1.7-2.7c0.1-0.1,0.1-0.2,0.2-0.3
		c0.6-1,1.2-2,1.7-2.9c0.1-0.2,0.2-0.3,0.3-0.4c0.5-0.8,0.9-1.6,1.4-2.4c0.1-0.2,0.2-0.3,0.3-0.5c0.5-0.9,1-1.7,1.4-2.5c0,0,0,0,0,0
		c6.2-11.2,9.2-18.8,9.2-18.8C1194.3,1212.5,1333,750.5,1412.9,478.6z"/>
	<path class="st8" d="M789.5,874c0,0-182.7,184.5-222.6,213.6l214.8-226L789.5,874z"/>
	<polygon class="st8" points="1106.7,512.2 1208.2,374.7 1089.8,509.6 	"/>
	<polygon class="st8" points="1367.9,461.9 1214.1,835.9 1359.7,458.4 	"/>
	<path class="st3" d="M1030.5,86.6c0,0,37.5,149.1,155.3,257.8c0,0-99.3-71.6-164.4-255.2L1030.5,86.6z"/>
	<path id="bottom_plate_1_" class="st11" d="M1118.9,1392.9C295.6,1092.2,148.8,531.3,123.4,372.9c-20.6,8.9-166,78.4-83.7,234.1
		c0,0,120.5,251.4,367.7,487.5c235.2,246.2,485.9,366,485.9,366C1025.2,1530.1,1095.4,1435.4,1118.9,1392.9z"/>
	<path class="st6" d="M933.6,1477.5"/>
	<g>
		<path class="st2" d="M1349.4,453.9c-89.5,236.2-261.4,682.7-364.3,902.6l-0.2,0.5c-0.3,0.7-26.3,72.4-65.1,115.8
			c3.8,1.5,7.6,2.8,11.4,4c37.7-44.3,62.2-110.4,64.2-115.8c103-220.1,274.8-666.2,364.3-902.6
			C1356.2,456.9,1352.8,455.4,1349.4,453.9z"/>
		<path class="st2" d="M1204.6,361.4c-45.1,55.3-105.4,128.3-173.9,208.8c-136.3,160.1-333.8,383-500.3,536.3l-0.2,0.2
			c-0.1,0.1-11.5,11.4-59.5,51.1c2.7,2.6,5.5,5.2,8.2,7.8c46-38.1,57.9-49.7,59.1-50.9c234.4-215.7,531.7-570.3,675.1-746
			C1210.3,366.2,1207.4,363.8,1204.6,361.4z"/>
		<path class="st2" d="M555.9,286.6l2.8,5.9c196.3-60.6,388.5-117.1,486.4-145.6c-1.5-3.4-3-6.9-4.5-10.4
			C856.6,190.1,346.9,340.4,94.1,433.2c-4.7,1.1-38.1,10-76.8,57.5c-1.4,7-2.3,14.3-2.6,22c12.5-17.5,27.2-34.3,44.2-47.7
			c22.1-17.5,37.7-20.8,37.8-20.9l0.4-0.1l0.4-0.2c115-42.2,283.5-96.4,450.3-148l-2.1-4.4L555.9,286.6z"/>
		<path class="st2" d="M582.7,343.1l-24-50.7l-2.8-5.9l-10.1,4.8l2.1,4.4l20.4,43.2c-38.9,25-314.4,202.9-365.6,253.8
			c-5.9,4.9-65.3,54.7-108.5,111.8c2.1,3.4,4.2,6.8,6.3,10.3c6.2-8.3,12.6-16.3,19-23.9c41.5-49,90-89.4,90.5-89.8l0.4-0.4
			c52.5-52.5,364.9-253.1,368.1-255.2L582.7,343.1z"/>
	</g>
	
		<ellipse transform="matrix(0.7071 -0.7071 0.7071 0.7071 6.1752 1074.4198)" class="st11" cx="1300" cy="529.8" rx="8.3" ry="8.3"/>
	
		<ellipse transform="matrix(0.7071 -0.7071 0.7071 0.7071 -26.8503 1073.2917)" class="st11" cx="1282.2" cy="569.1" rx="8.3" ry="8.3"/>
	
		<ellipse transform="matrix(0.7071 -0.7071 0.7071 0.7071 -59.5506 1075.3352)" class="st11" cx="1268.3" cy="609.6" rx="8.3" ry="8.3"/>
	
		<ellipse transform="matrix(0.7071 -0.7071 0.7071 0.7071 -92.1384 1075.5507)" class="st11" cx="1252.2" cy="649" rx="8.3" ry="8.3"/>
	
		<ellipse transform="matrix(0.7071 -0.7071 0.7071 0.7071 -490.1349 1121.2443)" class="st11" cx="1108.4" cy="1152.3" rx="8.3" ry="8.3"/>
	
		<ellipse transform="matrix(0.7071 -0.7071 0.7071 0.7071 -523.0132 1121.3394)" class="st11" cx="1092.1" cy="1192" rx="8.3" ry="8.3"/>
	
		<ellipse transform="matrix(0.7071 -0.7071 0.7071 0.7071 -558.2975 1120.4377)" class="st11" cx="1073.3" cy="1234.1" rx="8.3" ry="8.3"/>
	
		<ellipse transform="matrix(0.7071 -0.7071 0.7071 0.7071 -608.5911 1119.2667)" class="st11" cx="1046.8" cy="1294.3" rx="8.3" ry="8.3"/>
	
		<ellipse transform="matrix(0.7071 -0.7071 0.7071 0.7071 -639.8873 1121.2385)" class="st11" cx="1033.5" cy="1333" rx="8.3" ry="8.3"/>
	
		<ellipse transform="matrix(0.7071 -0.7071 0.7071 0.7071 -555.4573 1080.4731)" class="st11" cx="1026.5" cy="1210.7" rx="8.3" ry="8.3"/>
	
		<ellipse transform="matrix(0.7071 -0.7071 0.7071 0.7071 -606.8531 1081.9631)" class="st11" cx="1002.6" cy="1273.5" rx="8.3" ry="8.3"/>
	
		<ellipse transform="matrix(0.7071 -0.7071 0.7071 0.7071 178.8175 779.2148)" class="st11" cx="1030" cy="173.8" rx="8.3" ry="8.3"/>
	
		<ellipse transform="matrix(0.7071 -0.7071 0.7071 0.7071 160.9067 757.3827)" class="st11" cx="994.7" cy="184.5" rx="8.3" ry="8.3"/>
	
		<ellipse transform="matrix(0.7071 -0.7071 0.7071 0.7071 140.3313 733.9843)" class="st11" cx="956.2" cy="197.6" rx="8.3" ry="8.3"/>
	
		<ellipse transform="matrix(0.7071 -0.7071 0.7071 0.7071 -98.8524 468.9026)" class="st11" cx="516.6" cy="353.8" rx="8.3" ry="8.3"/>
	
		<ellipse transform="matrix(0.7071 -0.7071 0.7071 0.7071 -124.4061 449.1369)" class="st11" cx="480" cy="374.7" rx="8.3" ry="8.3"/>
	
		<ellipse transform="matrix(0.7071 -0.7071 0.7071 0.7071 -154.5254 311.0113)" class="st11" cx="298.2" cy="342" rx="8.3" ry="8.3"/>
	
		<ellipse transform="matrix(0.7071 -0.7071 0.7071 0.7071 -180.4883 277.8569)" class="st11" cx="245.2" cy="356.8" rx="8.3" ry="8.3"/>
	
		<ellipse transform="matrix(0.7071 -0.7071 0.7071 0.7071 -204.517 249.7821)" class="st11" cx="199.3" cy="371.8" rx="8.3" ry="8.3"/>
	
		<ellipse transform="matrix(0.7071 -0.7071 0.7071 0.7071 -405.3285 820.6691)" class="st11" cx="788" cy="899.6" rx="8.3" ry="8.3"/>
	
		<ellipse transform="matrix(0.7071 -0.7071 0.7071 0.7071 -442.8495 808.6138)" class="st11" cx="754.7" cy="938.9" rx="8.3" ry="8.3"/>
	
		<ellipse transform="matrix(0.7071 -0.7071 0.7071 0.7071 -527.3489 725.3548)" class="st11" cx="611.9" cy="999.2" rx="8.3" ry="8.3"/>
	
		<ellipse transform="matrix(0.7071 -0.7071 0.7071 0.7071 -562.1577 710.9365)" class="st11" cx="577.1" cy="1034.1" rx="8.3" ry="8.3"/>
	
		<ellipse transform="matrix(0.7071 -0.7071 0.7071 0.7071 71.4375 973.3803)" class="st11" cx="1210.7" cy="400.5" rx="8.3" ry="8.3"/>
	
		<ellipse transform="matrix(0.7071 -0.7071 0.7071 0.7071 44.7811 964.6631)" class="st11" cx="1186.8" cy="428.3" rx="8.3" ry="8.3"/>
	
		<ellipse transform="matrix(0.7071 -0.7071 0.7071 0.7071 -8.3481 951.7214)" class="st11" cx="1144.7" cy="485.9" rx="8.3" ry="8.3"/>
	
		<ellipse transform="matrix(0.7071 -0.7071 0.7071 0.7071 -38.1226 945.1451)" class="st11" cx="1121.8" cy="518.6" rx="8.3" ry="8.3"/>
	
		<ellipse transform="matrix(0.7071 -0.7071 0.7071 0.7071 84.8816 938.3975)" class="st11" cx="1175.2" cy="366.7" rx="8.3" ry="8.3"/>
	
		<ellipse transform="matrix(0.7071 -0.7071 0.7071 0.7071 -683.3929 1118.6321)" class="st2" cx="1008.6" cy="1384.2" rx="8.3" ry="8.3"/>
	
		<ellipse transform="matrix(0.7071 -0.7071 0.7071 0.7071 -713.9542 1116.6948)" class="st2" cx="991" cy="1420.2" rx="8.3" ry="8.3"/>
	
		<ellipse transform="matrix(0.7071 -0.7071 0.7071 0.7071 -641.5845 717.8102)" class="st2" cx="545.7" cy="1133.4" rx="8.3" ry="8.3"/>
	
		<ellipse transform="matrix(0.7071 -0.7071 0.7071 0.7071 -409.1572 324.3323)" class="st2" cx="186.9" cy="656.1" rx="8.3" ry="8.3"/>
	
		<ellipse transform="matrix(0.7071 -0.7071 0.7071 0.7071 -434.9918 313.6312)" class="st2" cx="161.1" cy="681.9" rx="8.3" ry="8.3"/>
	<circle class="st2" cx="867.5" cy="623.5" r="257"/>
	<circle cx="857.6" cy="613.7" r="240"/>
	<path class="st2" d="M1094.5,513.6c-12.9-30.6-31.5-58.1-55.1-81.7c-23.6-23.6-51.1-42.1-81.7-55.1
		c-31.7-13.4-65.4-20.2-100.1-20.2c-34.7,0-68.4,6.8-100.1,20.2c-30.6,12.9-58.1,31.5-81.7,55.1c-23.6,23.6-42.1,51.1-55.1,81.7
		c-13.4,31.7-20.2,65.4-20.2,100.1c0,34.7,6.8,68.4,20.2,100.1c12.9,30.6,31.5,58.1,55.1,81.7c23.6,23.6,51.1,42.1,81.7,55.1
		c31.7,13.4,65.4,20.2,100.1,20.2c34.7,0,68.4-6.8,100.1-20.2c30.6-12.9,58.1-31.5,81.7-55.1c23.6-23.6,42.1-51.1,55.1-81.7
		c13.4-31.7,20.2-65.4,20.2-100.1C1114.7,579,1107.9,545.3,1094.5,513.6z M1061.2,699.6c-11.1,26.3-27.1,49.9-47.3,70.2
		c-18.6,18.6-40,33.6-63.8,44.5l1.1-22.4c4.7-29.9,3.3-116.7,3.3-116.7c51.3-30.8,61.6-65.8,61.6-65.8c5.2-11.1,6.1-21.9,5.1-31
		c-0.7-10.4-5.2-22.5-9.9-32.5c-2.9-7.7-7-14.8-11.4-21c0,0,0,0,0,0l0,0c-12.9-18-29.1-28.9-29.1-28.9c-7.5-45.3-30.3-63-30.3-63
		c-7.9-9.3-13.5-2.3-13.5-2.3c-1.4,3.3-11.2,16.3-11.2,16.3c-12.6,14-14,32.7-14,32.7c-52.7-7.9-77.9,10.3-77.9,10.3
		c0.5-11.7-10.3-21.9-10.3-21.9l-25.2-28c-12.1-8.9-15.9,3.7-15.9,3.7c-7.9,17.7-17.3,37.8-17.3,37.8c-9.3,18.7-7.5,27.5-7.5,27.5
		c0.5,20.1,7.9,29.4,7.9,29.4c-3.3,8.9-8.4,25.7-8.4,25.7c-6.5,18.2,1.9,33.6,1.9,33.6c6.1,23.3,43.9,56,43.9,56
		s-12.9,18.3-24.4,29.2c-1.1,0.9-2.1,1.9-3.2,2.8c0,0,0,0,0,0c-0.3,0.2-0.5,0.4-0.7,0.7c-24.7,22.6-55,59.1-69.3,76.8
		c-17.3-18.8-31.2-40.2-41.1-63.7c-11.5-27.2-17.4-56.1-17.4-86c0-29.8,5.8-58.8,17.4-86c11.1-26.3,27.1-49.9,47.3-70.2
		s43.9-36.2,70.2-47.3c27.2-11.5,56.1-17.4,86-17.4c29.8,0,58.8,5.8,86,17.4c26.3,11.1,49.9,27.1,70.2,47.3
		c20.3,20.3,36.2,43.9,47.3,70.2c11.5,27.2,17.4,56.1,17.4,86C1078.5,643.5,1072.7,672.4,1061.2,699.6z"/>
	<g>
		<path class="st8" d="M947.8,562.7c0,0,9.4-7.2,0-11.1c0,0-9.2-2.7-18.1,1.9c0,0-2.5,2.7,0,5.3C929.7,558.8,935,567.5,947.8,562.7z
			"/>
		<path class="st8" d="M979.1,573.5c-2.1,0-3.9,1.7-3.9,3.9c0,0.2,0,0.4,0.1,0.6c-0.6,2.4-3.2,8.5-13.3,10.6l-0.3,0.1l-0.3,0.1
			c0,0-2.8,0.9-6.2,0.4c-4.9-0.8-8.8-4-11.8-9.6l-2.9-5.4c-0.7,1.8-3,7.7-4.8,11.2c-0.3,0.7-0.7,1.5-1.2,2.3
			c-2.7,4.1-7.6,6.3-14.6,6.6l-0.3,0c0,0-3.6,0.4-7.2-0.9c-4.1-1.4-6.5-4.3-7.4-8.7c0-0.2,0.1-0.5,0.1-0.7c0-2.1-1.7-3.9-3.9-3.9
			c-2.1,0-3.9,1.7-3.9,3.9c0,0.7,0.2,1.4,0.5,1.9c1.8,9,7.7,12.8,12.4,14.4c3.1,1,6,1.2,8,1.2c1,0,1.7-0.1,2-0.1
			c12-0.5,17.8-5.8,20.5-10.2c0.3-0.5,0.6-1,0.9-1.6c4.2,4.5,8.8,6.2,12.4,6.7c4.7,0.7,8.5-0.3,9.6-0.6c14.1-3,17.8-12.4,18.7-16.3
			c0.3-0.6,0.6-1.3,0.6-2C982.9,575.2,981.2,573.5,979.1,573.5z"/>
		
			<ellipse transform="matrix(0.8919 -0.4522 0.4522 0.8919 -135.9152 499.1867)" class="st8" cx="976.3" cy="533.9" rx="13.9" ry="23.1"/>
		
			<ellipse transform="matrix(0.6486 -0.7612 0.7612 0.6486 -97.035 849.3367)" class="st8" cx="871.2" cy="529.7" rx="27" ry="19.1"/>
	</g>
	<path class="st11" d="M857.6,870.2c-34.6,0-68.2-6.8-99.9-20.2c-30.6-12.9-58-31.4-81.5-55c-23.6-23.6-42.1-51-55-81.5
		c-13.4-31.6-20.2-65.2-20.2-99.9c0-34.6,6.8-68.2,20.2-99.9c12.9-30.6,31.4-58,55-81.5c23.6-23.6,51-42.1,81.5-55
		c31.6-13.4,65.2-20.2,99.9-20.2c34.6,0,68.2,6.8,99.9,20.2c30.6,12.9,58,31.4,81.5,55c23.6,23.6,42.1,51,55,81.5
		c13.4,31.6,20.2,65.2,20.2,99.9c0,34.6-6.8,68.2-20.2,99.9c-12.9,30.6-31.4,58-55,81.5c-23.6,23.6-51,42.1-81.5,55
		C925.9,863.5,892.3,870.2,857.6,870.2z M857.6,393.2c-29.8,0-58.6,5.8-85.8,17.3c-26.3,11.1-49.8,27-70.1,47.3
		c-20.3,20.3-36.2,43.8-47.3,70.1c-11.5,27.2-17.3,56-17.3,85.8c0,29.8,5.8,58.6,17.3,85.8c11.1,26.3,27,49.8,47.3,70.1
		c20.3,20.3,43.8,36.2,70.1,47.3c27.2,11.5,56,17.3,85.8,17.3c29.8,0,58.6-5.8,85.8-17.3c26.3-11.1,49.8-27,70.1-47.3
		c20.3-20.3,36.2-43.8,47.3-70.1c11.5-27.2,17.3-56,17.3-85.8c0-29.8-5.8-58.6-17.3-85.8c-11.1-26.3-27-49.8-47.3-70.1
		c-20.3-20.3-43.8-36.2-70.1-47.3C916.3,399,887.4,393.2,857.6,393.2z"/>
	<path class="st12" d="M928.6,366.7c-19.3-6.1-71-18.6-132.6-3.1c-44.8,8.8-92,30-130,74.9c0,0,0,0,0,0c0,0-94.9,102-57.9,242.6
		c0,0,0-0.1-0.1-0.3c2,8.9,4.5,17.9,7.6,27c0.1,0.2,0.1,0.4,0.2,0.5c0.1,0.3,0.2,0.6,0.3,0.8c0,0,0-0.1-0.1-0.3
		c10.7,32.5,29.8,63.1,62.1,86.5c-4.4-3.3-109.7-85.4-48.3-280.2c0,0,53.7-194.4,316.2-143.9C945.9,371.2,939.6,369.2,928.6,366.7z"
		/>
</g>
</svg>
